# xmcd
#
# Track frame offsets:
#	150
#	24751
#	36276
#	53403
#	66364
#	79709
#	92735
#	104682
#	116499
#	135326
#	149324
#	167628
#	168876
#	179771
#	194903
#	207823
#	222271
#	239321
#	253558
#	277728
#	291379
#	302738
#	317567
#
# Disc length: 4415 seconds
#
# Revision: 0
# Processed by: cddbd v1.5PL3 Copyright (c) Steve Scherf et al.
# Submitted via: audiograbber 1.83.01
#
DISCID=4b113d17
DTITLE=Johnny Cash - The Essential Johnny Cash 1955-1983 Disc 3
DYEAR=1983
DGENRE=Country
TTITLE0=Folsom Prison Blues (Live)
TTITLE1=Cocaine Blues (Live)
TTITLE2=San Quentin (Live)
TTITLE3=A Boy Names Sue (Live)
TTITLE4=Wanted Man
TTITLE5=Singing In Vietnam Talking Blues
TTITLE6=Man In Black
TTITLE7=What Is Truth?
TTITLE8=Flesh And Blood
TTITLE9=Sunday Morning Coming Down
TTITLE10=Oney
TTITLE11=One Piece At A Time
TTITLE12=Hit The Road And Go
TTITLE13=Rockabilly Blues (Texas 1955)
TTITLE14=I Will Rock And Roll With You
TTITLE15=No Expectations
TTITLE16=(Ghost) Riders In The Sky
TTITLE17=Bull Rider
TTITLE18=Highway Patrolman
TTITLE19=After The Ball
TTITLE20=Without Love
TTITLE21=The Last Time
TTITLE22=I'm Gonna Sit On The Porch And Pick On My Old Guitar
EXTD=
EXTT0=
EXTT1=
EXTT2=
EXTT3=
EXTT4=
EXTT5=
EXTT6=
EXTT7=
EXTT8=
EXTT9=
EXTT10=
EXTT11=
EXTT12=
EXTT13=
EXTT14=
EXTT15=
EXTT16=
EXTT17=
EXTT18=
EXTT19=
EXTT20=
EXTT21=
EXTT22=
PLAYORDER=
